<svg xmlns="http://www.w3.org/2000/svg" version="1.1" xmlns:xlink="http://www.w3.org/1999/xlink" xmlns:svgjs="http://svgjs.dev/svgjs" width="1920" height="1080" preserveAspectRatio="none" viewBox="0 0 1920 1080"><g mask="url(&quot;#SvgjsMask1053&quot;)" fill="none"><rect width="1920" height="1080" x="0" y="0" fill="rgba(0, 0, 0, 1)"></rect><g mask="url(&quot;#SvgjsMask1054&quot;)"><path d="M925 225L1275 225L1475 25L1525 25L1875 375" stroke-width="8.33" stroke="rgba(38, 38, 38, 1)"></path><path d="M912.5 225 a12.5 12.5 0 1 0 25 0 a12.5 12.5 0 1 0 -25 0zM1862.5 375 a12.5 12.5 0 1 0 25 0 a12.5 12.5 0 1 0 -25 0z" fill="rgba(38, 38, 38, 1)"></path><path d="M975 425L1375 825L1375 975L1475 1075L1775 1075" stroke-width="8.33" stroke="rgba(38, 38, 38, 1)"></path><path d="M962.5 425 a12.5 12.5 0 1 0 25 0 a12.5 12.5 0 1 0 -25 0zM1762.5 1075 a12.5 12.5 0 1 0 25 0 a12.5 12.5 0 1 0 -25 0z" fill="rgba(38, 38, 38, 1)"></path><path d="M1375 525L1375 175L1475 75L1525 75L1925 475L1925 525" stroke-width="8.33" stroke="rgba(38, 38, 38, 1)"></path><path d="M1362.5 525 a12.5 12.5 0 1 0 25 0 a12.5 12.5 0 1 0 -25 0zM1912.5 525 a12.5 12.5 0 1 0 25 0 a12.5 12.5 0 1 0 -25 0z" fill="rgba(38, 38, 38, 1)"></path><path d="M75 1025L75 75" stroke-width="8.33" stroke="rgba(38, 38, 38, 1)"></path><path d="M62.5 1025 a12.5 12.5 0 1 0 25 0 a12.5 12.5 0 1 0 -25 0zM62.5 75 a12.5 12.5 0 1 0 25 0 a12.5 12.5 0 1 0 -25 0z" fill="rgba(38, 38, 38, 1)"></path><path d="M1625 425L1625 225L1525 125L1475 125L1425 175L1425 625L1325 725" stroke-width="8.33" stroke="rgba(38, 38, 38, 1)"></path><path d="M1612.5 425 a12.5 12.5 0 1 0 25 0 a12.5 12.5 0 1 0 -25 0zM1312.5 725 a12.5 12.5 0 1 0 25 0 a12.5 12.5 0 1 0 -25 0z" fill="rgba(38, 38, 38, 1)"></path><path d="M1175 725L1325 875L1325 975L1375 1025L1375 1075" stroke-width="8.33" stroke="rgba(38, 38, 38, 1)"></path><path d="M1162.5 725 a12.5 12.5 0 1 0 25 0 a12.5 12.5 0 1 0 -25 0zM1362.5 1075 a12.5 12.5 0 1 0 25 0 a12.5 12.5 0 1 0 -25 0z" fill="rgba(38, 38, 38, 1)"></path><path d="M625 925L575 875L575 825L925 475L925 375L575 25L525 25" stroke-width="8.33" stroke="rgba(38, 38, 38, 1)"></path><path d="M612.5 925 a12.5 12.5 0 1 0 25 0 a12.5 12.5 0 1 0 -25 0zM512.5 25 a12.5 12.5 0 1 0 25 0 a12.5 12.5 0 1 0 -25 0z" fill="rgba(38, 38, 38, 1)"></path><path d="M1825 725L1375 725" stroke-width="8.33" stroke="rgba(38, 38, 38, 1)"></path><path d="M1812.5 725 a12.5 12.5 0 1 0 25 0 a12.5 12.5 0 1 0 -25 0zM1362.5 725 a12.5 12.5 0 1 0 25 0 a12.5 12.5 0 1 0 -25 0z" fill="rgba(38, 38, 38, 1)"></path><path d="M1475 175L1475 375L1775 675L1925 675" stroke-width="8.33" stroke="rgba(38, 38, 38, 1)"></path><path d="M1462.5 175 a12.5 12.5 0 1 0 25 0 a12.5 12.5 0 1 0 -25 0zM1912.5 675 a12.5 12.5 0 1 0 25 0 a12.5 12.5 0 1 0 -25 0z" fill="rgba(38, 38, 38, 1)"></path><path d="M525 1075L425 1075L125 775L125 225" stroke-width="8.33" stroke="rgba(38, 38, 38, 1)"></path><path d="M512.5 1075 a12.5 12.5 0 1 0 25 0 a12.5 12.5 0 1 0 -25 0zM112.5 225 a12.5 12.5 0 1 0 25 0 a12.5 12.5 0 1 0 -25 0z" fill="rgba(38, 38, 38, 1)"></path><path d="M175 1025L175 875L125 825" stroke-width="8.33" stroke="rgba(38, 38, 38, 1)"></path><path d="M162.5 1025 a12.5 12.5 0 1 0 25 0 a12.5 12.5 0 1 0 -25 0zM112.5 825 a12.5 12.5 0 1 0 25 0 a12.5 12.5 0 1 0 -25 0z" fill="rgba(38, 38, 38, 1)"></path><path d="M25 175L25 25" stroke-width="8.33" stroke="rgba(38, 38, 38, 1)"></path><path d="M12.5 175 a12.5 12.5 0 1 0 25 0 a12.5 12.5 0 1 0 -25 0zM12.5 25 a12.5 12.5 0 1 0 25 0 a12.5 12.5 0 1 0 -25 0z" fill="rgba(38, 38, 38, 1)"></path><path d="M25 575L25 225" stroke-width="8.33" stroke="rgba(38, 38, 38, 1)"></path><path d="M12.5 575 a12.5 12.5 0 1 0 25 0 a12.5 12.5 0 1 0 -25 0zM12.5 225 a12.5 12.5 0 1 0 25 0 a12.5 12.5 0 1 0 -25 0z" fill="rgba(38, 38, 38, 1)"></path><path d="M1175 25L1275 125L1325 125L1375 75L1375 25" stroke-width="8.33" stroke="rgba(38, 38, 38, 1)"></path><path d="M1162.5 25 a12.5 12.5 0 1 0 25 0 a12.5 12.5 0 1 0 -25 0zM1362.5 25 a12.5 12.5 0 1 0 25 0 a12.5 12.5 0 1 0 -25 0z" fill="rgba(38, 38, 38, 1)"></path><path d="M825 25L825 225L1275 675L1325 675L1375 625L1375 575L1325 525L1225 525" stroke-width="8.33" stroke="rgba(38, 38, 38, 1)"></path><path d="M812.5 25 a12.5 12.5 0 1 0 25 0 a12.5 12.5 0 1 0 -25 0zM1212.5 525 a12.5 12.5 0 1 0 25 0 a12.5 12.5 0 1 0 -25 0z" fill="rgba(38, 38, 38, 1)"></path><path d="M1475 675L1675 675" stroke-width="8.33" stroke="rgba(38, 38, 38, 1)"></path><path d="M1462.5 675 a12.5 12.5 0 1 0 25 0 a12.5 12.5 0 1 0 -25 0zM1662.5 675 a12.5 12.5 0 1 0 25 0 a12.5 12.5 0 1 0 -25 0z" fill="rgba(38, 38, 38, 1)"></path><path d="M725 425L325 25L225 25L125 125L125 175L425 475" stroke-width="8.33" stroke="rgba(38, 38, 38, 1)"></path><path d="M712.5 425 a12.5 12.5 0 1 0 25 0 a12.5 12.5 0 1 0 -25 0zM412.5 475 a12.5 12.5 0 1 0 25 0 a12.5 12.5 0 1 0 -25 0z" fill="rgba(38, 38, 38, 1)"></path><path d="M625 1075L1325 1075" stroke-width="8.33" stroke="rgba(38, 38, 38, 1)"></path><path d="M612.5 1075 a12.5 12.5 0 1 0 25 0 a12.5 12.5 0 1 0 -25 0zM1312.5 1075 a12.5 12.5 0 1 0 25 0 a12.5 12.5 0 1 0 -25 0z" fill="rgba(38, 38, 38, 1)"></path><path d="M825 475L825 525L525 825L525 1025L575 1075" stroke-width="8.33" stroke="rgba(38, 38, 38, 1)"></path><path d="M812.5 475 a12.5 12.5 0 1 0 25 0 a12.5 12.5 0 1 0 -25 0zM562.5 1075 a12.5 12.5 0 1 0 25 0 a12.5 12.5 0 1 0 -25 0z" fill="rgba(38, 38, 38, 1)"></path><path d="M425 275L225 75" stroke-width="8.33" stroke="rgba(38, 38, 38, 1)"></path><path d="M412.5 275 a12.5 12.5 0 1 0 25 0 a12.5 12.5 0 1 0 -25 0zM212.5 75 a12.5 12.5 0 1 0 25 0 a12.5 12.5 0 1 0 -25 0z" fill="rgba(38, 38, 38, 1)"></path><path d="M1125 1025L1325 1025" stroke-width="8.33" stroke="rgba(38, 38, 38, 1)"></path><path d="M1112.5 1025 a12.5 12.5 0 1 0 25 0 a12.5 12.5 0 1 0 -25 0zM1312.5 1025 a12.5 12.5 0 1 0 25 0 a12.5 12.5 0 1 0 -25 0z" fill="rgba(38, 38, 38, 1)"></path><path d="M275 625L275 875L325 925L475 925" stroke-width="8.33" stroke="rgba(38, 38, 38, 1)"></path><path d="M262.5 625 a12.5 12.5 0 1 0 25 0 a12.5 12.5 0 1 0 -25 0zM462.5 925 a12.5 12.5 0 1 0 25 0 a12.5 12.5 0 1 0 -25 0z" fill="rgba(38, 38, 38, 1)"></path><path d="M1475 525L1575 625L1625 625" stroke-width="8.33" stroke="rgba(38, 38, 38, 1)"></path><path d="M1462.5 525 a12.5 12.5 0 1 0 25 0 a12.5 12.5 0 1 0 -25 0zM1612.5 625 a12.5 12.5 0 1 0 25 0 a12.5 12.5 0 1 0 -25 0z" fill="rgba(38, 38, 38, 1)"></path><path d="M1575 875L1725 1025L1925 1025" stroke-width="8.33" stroke="rgba(38, 38, 38, 1)"></path><path d="M1562.5 875 a12.5 12.5 0 1 0 25 0 a12.5 12.5 0 1 0 -25 0zM1912.5 1025 a12.5 12.5 0 1 0 25 0 a12.5 12.5 0 1 0 -25 0z" fill="rgba(38, 38, 38, 1)"></path><path d="M1325 325L1325 225" stroke-width="8.33" stroke="rgba(38, 38, 38, 1)"></path><path d="M1312.5 325 a12.5 12.5 0 1 0 25 0 a12.5 12.5 0 1 0 -25 0zM1312.5 225 a12.5 12.5 0 1 0 25 0 a12.5 12.5 0 1 0 -25 0z" fill="rgba(38, 38, 38, 1)"></path><path d="M25 825L25 625" stroke-width="8.33" stroke="rgba(38, 38, 38, 1)"></path><path d="M12.5 825 a12.5 12.5 0 1 0 25 0 a12.5 12.5 0 1 0 -25 0zM12.5 625 a12.5 12.5 0 1 0 25 0 a12.5 12.5 0 1 0 -25 0z" fill="rgba(38, 38, 38, 1)"></path><path d="M1225 925L1075 925L825 675L825 625L975 475" stroke-width="8.33" stroke="rgba(38, 38, 38, 1)"></path><path d="M1212.5 925 a12.5 12.5 0 1 0 25 0 a12.5 12.5 0 1 0 -25 0zM962.5 475 a12.5 12.5 0 1 0 25 0 a12.5 12.5 0 1 0 -25 0z" fill="rgba(38, 38, 38, 1)"></path><path d="M25 1075L375 1075" stroke-width="8.33" stroke="rgba(38, 38, 38, 1)"></path><path d="M12.5 1075 a12.5 12.5 0 1 0 25 0 a12.5 12.5 0 1 0 -25 0zM362.5 1075 a12.5 12.5 0 1 0 25 0 a12.5 12.5 0 1 0 -25 0z" fill="rgba(38, 38, 38, 1)"></path><path d="M1575 825L1725 975L1925 975" stroke-width="8.33" stroke="rgba(38, 38, 38, 1)"></path><path d="M1562.5 825 a12.5 12.5 0 1 0 25 0 a12.5 12.5 0 1 0 -25 0zM1912.5 975 a12.5 12.5 0 1 0 25 0 a12.5 12.5 0 1 0 -25 0z" fill="rgba(38, 38, 38, 1)"></path><path d="M575 225L625 175L625 125L575 75L425 75L375 25" stroke-width="8.33" stroke="rgba(38, 38, 38, 1)"></path><path d="M562.5 225 a12.5 12.5 0 1 0 25 0 a12.5 12.5 0 1 0 -25 0zM362.5 25 a12.5 12.5 0 1 0 25 0 a12.5 12.5 0 1 0 -25 0z" fill="rgba(38, 38, 38, 1)"></path><path d="M1725 525L1875 525L1925 575L1925 625" stroke-width="8.33" stroke="rgba(38, 38, 38, 1)"></path><path d="M1712.5 525 a12.5 12.5 0 1 0 25 0 a12.5 12.5 0 1 0 -25 0zM1912.5 625 a12.5 12.5 0 1 0 25 0 a12.5 12.5 0 1 0 -25 0z" fill="rgba(38, 38, 38, 1)"></path><path d="M275 275L225 225L225 125" stroke-width="8.33" stroke="rgba(38, 38, 38, 1)"></path><path d="M262.5 275 a12.5 12.5 0 1 0 25 0 a12.5 12.5 0 1 0 -25 0zM212.5 125 a12.5 12.5 0 1 0 25 0 a12.5 12.5 0 1 0 -25 0z" fill="rgba(38, 38, 38, 1)"></path><path d="M1825 75L1625 75" stroke-width="8.33" stroke="rgba(38, 38, 38, 1)"></path><path d="M1812.5 75 a12.5 12.5 0 1 0 25 0 a12.5 12.5 0 1 0 -25 0zM1612.5 75 a12.5 12.5 0 1 0 25 0 a12.5 12.5 0 1 0 -25 0z" fill="rgba(38, 38, 38, 1)"></path><path d="M225 575L225 825" stroke-width="8.33" stroke="rgba(38, 38, 38, 1)"></path><path d="M212.5 575 a12.5 12.5 0 1 0 25 0 a12.5 12.5 0 1 0 -25 0zM212.5 825 a12.5 12.5 0 1 0 25 0 a12.5 12.5 0 1 0 -25 0z" fill="rgba(38, 38, 38, 1)"></path><path d="M775 475L675 475L325 125" stroke-width="8.33" stroke="rgba(38, 38, 38, 1)"></path><path d="M762.5 475 a12.5 12.5 0 1 0 25 0 a12.5 12.5 0 1 0 -25 0zM312.5 125 a12.5 12.5 0 1 0 25 0 a12.5 12.5 0 1 0 -25 0z" fill="rgba(38, 38, 38, 1)"></path><path d="M1425 825L1475 775L1925 775" stroke-width="8.33" stroke="rgba(38, 38, 38, 1)"></path><path d="M1412.5 825 a12.5 12.5 0 1 0 25 0 a12.5 12.5 0 1 0 -25 0zM1912.5 775 a12.5 12.5 0 1 0 25 0 a12.5 12.5 0 1 0 -25 0z" fill="rgba(38, 38, 38, 1)"></path><path d="M325 625L475 775L525 775L775 525" stroke-width="8.33" stroke="rgba(38, 38, 38, 1)"></path><path d="M312.5 625 a12.5 12.5 0 1 0 25 0 a12.5 12.5 0 1 0 -25 0zM762.5 525 a12.5 12.5 0 1 0 25 0 a12.5 12.5 0 1 0 -25 0z" fill="rgba(38, 38, 38, 1)"></path><path d="M1225 825L1275 875L1275 975" stroke-width="8.33" stroke="rgba(38, 38, 38, 1)"></path><path d="M1212.5 825 a12.5 12.5 0 1 0 25 0 a12.5 12.5 0 1 0 -25 0zM1262.5 975 a12.5 12.5 0 1 0 25 0 a12.5 12.5 0 1 0 -25 0z" fill="rgba(38, 38, 38, 1)"></path><path d="M1575 425L1575 375L1525 325L1525 175" stroke-width="8.33" stroke="rgba(38, 38, 38, 1)"></path><path d="M1562.5 425 a12.5 12.5 0 1 0 25 0 a12.5 12.5 0 1 0 -25 0zM1512.5 175 a12.5 12.5 0 1 0 25 0 a12.5 12.5 0 1 0 -25 0z" fill="rgba(38, 38, 38, 1)"></path><path d="M1875 25L1625 25" stroke-width="8.33" stroke="rgba(38, 38, 38, 1)"></path><path d="M1862.5 25 a12.5 12.5 0 1 0 25 0 a12.5 12.5 0 1 0 -25 0zM1612.5 25 a12.5 12.5 0 1 0 25 0 a12.5 12.5 0 1 0 -25 0z" fill="rgba(38, 38, 38, 1)"></path><path d="M575 525L175 525" stroke-width="8.33" stroke="rgba(38, 38, 38, 1)"></path><path d="M562.5 525 a12.5 12.5 0 1 0 25 0 a12.5 12.5 0 1 0 -25 0zM162.5 525 a12.5 12.5 0 1 0 25 0 a12.5 12.5 0 1 0 -25 0z" fill="rgba(38, 38, 38, 1)"></path><path d="M1075 725L1025 775L1025 825L1075 875L1225 875" stroke-width="8.33" stroke="rgba(38, 38, 38, 1)"></path><path d="M1062.5 725 a12.5 12.5 0 1 0 25 0 a12.5 12.5 0 1 0 -25 0zM1212.5 875 a12.5 12.5 0 1 0 25 0 a12.5 12.5 0 1 0 -25 0z" fill="rgba(38, 38, 38, 1)"></path><path d="M375 775L375 875" stroke-width="8.33" stroke="rgba(38, 38, 38, 1)"></path><path d="M362.5 775 a12.5 12.5 0 1 0 25 0 a12.5 12.5 0 1 0 -25 0zM362.5 875 a12.5 12.5 0 1 0 25 0 a12.5 12.5 0 1 0 -25 0z" fill="rgba(38, 38, 38, 1)"></path><path d="M1825 875L1925 875" stroke-width="8.33" stroke="rgba(38, 38, 38, 1)"></path><path d="M1812.5 875 a12.5 12.5 0 1 0 25 0 a12.5 12.5 0 1 0 -25 0zM1912.5 875 a12.5 12.5 0 1 0 25 0 a12.5 12.5 0 1 0 -25 0z" fill="rgba(38, 38, 38, 1)"></path><path d="M925 975L925 825L825 725L775 725" stroke-width="8.33" stroke="rgba(38, 38, 38, 1)"></path><path d="M912.5 975 a12.5 12.5 0 1 0 25 0 a12.5 12.5 0 1 0 -25 0zM762.5 725 a12.5 12.5 0 1 0 25 0 a12.5 12.5 0 1 0 -25 0z" fill="rgba(38, 38, 38, 1)"></path><path d="M1525 1025L1675 1025" stroke-width="8.33" stroke="rgba(38, 38, 38, 1)"></path><path d="M1512.5 1025 a12.5 12.5 0 1 0 25 0 a12.5 12.5 0 1 0 -25 0zM1662.5 1025 a12.5 12.5 0 1 0 25 0 a12.5 12.5 0 1 0 -25 0z" fill="rgba(38, 38, 38, 1)"></path><path d="M1925 25L1775 175L1725 175" stroke-width="8.33" stroke="rgba(38, 38, 38, 1)"></path><path d="M1912.5 25 a12.5 12.5 0 1 0 25 0 a12.5 12.5 0 1 0 -25 0zM1712.5 175 a12.5 12.5 0 1 0 25 0 a12.5 12.5 0 1 0 -25 0z" fill="rgba(38, 38, 38, 1)"></path><path d="M525 475L475 475L325 325L325 275L275 225L275 175" stroke-width="8.33" stroke="rgba(38, 38, 38, 1)"></path><path d="M512.5 475 a12.5 12.5 0 1 0 25 0 a12.5 12.5 0 1 0 -25 0zM262.5 175 a12.5 12.5 0 1 0 25 0 a12.5 12.5 0 1 0 -25 0z" fill="rgba(38, 38, 38, 1)"></path><path d="M475 675L475 575" stroke-width="8.33" stroke="rgba(38, 38, 38, 1)"></path><path d="M462.5 675 a12.5 12.5 0 1 0 25 0 a12.5 12.5 0 1 0 -25 0zM462.5 575 a12.5 12.5 0 1 0 25 0 a12.5 12.5 0 1 0 -25 0z" fill="rgba(38, 38, 38, 1)"></path><path d="M1025 675L1175 675" stroke-width="8.33" stroke="rgba(38, 38, 38, 1)"></path><path d="M1012.5 675 a12.5 12.5 0 1 0 25 0 a12.5 12.5 0 1 0 -25 0zM1162.5 675 a12.5 12.5 0 1 0 25 0 a12.5 12.5 0 1 0 -25 0z" fill="rgba(38, 38, 38, 1)"></path><path d="M1175 275L1125 275L1025 375" stroke-width="8.33" stroke="rgba(38, 38, 38, 1)"></path><path d="M1162.5 275 a12.5 12.5 0 1 0 25 0 a12.5 12.5 0 1 0 -25 0zM1012.5 375 a12.5 12.5 0 1 0 25 0 a12.5 12.5 0 1 0 -25 0z" fill="rgba(38, 38, 38, 1)"></path><path d="M825 375L725 275L725 225L675 175" stroke-width="8.33" stroke="rgba(38, 38, 38, 1)"></path><path d="M812.5 375 a12.5 12.5 0 1 0 25 0 a12.5 12.5 0 1 0 -25 0zM662.5 175 a12.5 12.5 0 1 0 25 0 a12.5 12.5 0 1 0 -25 0z" fill="rgba(38, 38, 38, 1)"></path><path d="M775 875L875 875" stroke-width="8.33" stroke="rgba(38, 38, 38, 1)"></path><path d="M762.5 875 a12.5 12.5 0 1 0 25 0 a12.5 12.5 0 1 0 -25 0zM862.5 875 a12.5 12.5 0 1 0 25 0 a12.5 12.5 0 1 0 -25 0z" fill="rgba(38, 38, 38, 1)"></path><path d="M1925 75L1825 175L1825 275L1925 375L1925 425" stroke-width="8.33" stroke="rgba(38, 38, 38, 1)"></path><path d="M1912.5 75 a12.5 12.5 0 1 0 25 0 a12.5 12.5 0 1 0 -25 0zM1912.5 425 a12.5 12.5 0 1 0 25 0 a12.5 12.5 0 1 0 -25 0z" fill="rgba(38, 38, 38, 1)"></path><path d="M575 925L675 1025L725 1025L825 925L875 925" stroke-width="8.33" stroke="rgba(38, 38, 38, 1)"></path><path d="M562.5 925 a12.5 12.5 0 1 0 25 0 a12.5 12.5 0 1 0 -25 0zM862.5 925 a12.5 12.5 0 1 0 25 0 a12.5 12.5 0 1 0 -25 0z" fill="rgba(38, 38, 38, 1)"></path><path d="M675 325L775 425L825 425" stroke-width="8.33" stroke="rgba(38, 38, 38, 1)"></path><path d="M662.5 325 a12.5 12.5 0 1 0 25 0 a12.5 12.5 0 1 0 -25 0zM812.5 425 a12.5 12.5 0 1 0 25 0 a12.5 12.5 0 1 0 -25 0z" fill="rgba(38, 38, 38, 1)"></path><path d="M1725 925L1825 825L1925 825" stroke-width="8.33" stroke="rgba(38, 38, 38, 1)"></path><path d="M1712.5 925 a12.5 12.5 0 1 0 25 0 a12.5 12.5 0 1 0 -25 0zM1912.5 825 a12.5 12.5 0 1 0 25 0 a12.5 12.5 0 1 0 -25 0z" fill="rgba(38, 38, 38, 1)"></path><path d="M475 875L475 825L425 775" stroke-width="8.33" stroke="rgba(38, 38, 38, 1)"></path><path d="M462.5 875 a12.5 12.5 0 1 0 25 0 a12.5 12.5 0 1 0 -25 0zM412.5 775 a12.5 12.5 0 1 0 25 0 a12.5 12.5 0 1 0 -25 0z" fill="rgba(38, 38, 38, 1)"></path><path d="M725 825L775 775L825 775L875 825" stroke-width="8.33" stroke="rgba(38, 38, 38, 1)"></path><path d="M712.5 825 a12.5 12.5 0 1 0 25 0 a12.5 12.5 0 1 0 -25 0zM862.5 825 a12.5 12.5 0 1 0 25 0 a12.5 12.5 0 1 0 -25 0z" fill="rgba(38, 38, 38, 1)"></path><path d="M225 325L375 475" stroke-width="8.33" stroke="rgba(38, 38, 38, 1)"></path><path d="M212.5 325 a12.5 12.5 0 1 0 25 0 a12.5 12.5 0 1 0 -25 0zM362.5 475 a12.5 12.5 0 1 0 25 0 a12.5 12.5 0 1 0 -25 0z" fill="rgba(38, 38, 38, 1)"></path><path d="M1575 925L1475 825" stroke-width="8.33" stroke="rgba(38, 38, 38, 1)"></path><path d="M1562.5 925 a12.5 12.5 0 1 0 25 0 a12.5 12.5 0 1 0 -25 0zM1462.5 825 a12.5 12.5 0 1 0 25 0 a12.5 12.5 0 1 0 -25 0z" fill="rgba(38, 38, 38, 1)"></path><path d="M1025 75L1175 75" stroke-width="8.33" stroke="rgba(38, 38, 38, 1)"></path><path d="M1012.5 75 a12.5 12.5 0 1 0 25 0 a12.5 12.5 0 1 0 -25 0zM1162.5 75 a12.5 12.5 0 1 0 25 0 a12.5 12.5 0 1 0 -25 0z" fill="rgba(38, 38, 38, 1)"></path><path d="M1925 275L1875 225L1875 175L1925 125" stroke-width="8.33" stroke="rgba(38, 38, 38, 1)"></path><path d="M1912.5 275 a12.5 12.5 0 1 0 25 0 a12.5 12.5 0 1 0 -25 0zM1912.5 125 a12.5 12.5 0 1 0 25 0 a12.5 12.5 0 1 0 -25 0z" fill="rgba(38, 38, 38, 1)"></path><path d="M1225 425L1275 375L1325 375" stroke-width="8.33" stroke="rgba(38, 38, 38, 1)"></path><path d="M1212.5 425 a12.5 12.5 0 1 0 25 0 a12.5 12.5 0 1 0 -25 0zM1312.5 375 a12.5 12.5 0 1 0 25 0 a12.5 12.5 0 1 0 -25 0z" fill="rgba(38, 38, 38, 1)"></path><path d="M1275 325L1125 475" stroke-width="8.33" stroke="rgba(38, 38, 38, 1)"></path><path d="M1262.5 325 a12.5 12.5 0 1 0 25 0 a12.5 12.5 0 1 0 -25 0zM1112.5 475 a12.5 12.5 0 1 0 25 0 a12.5 12.5 0 1 0 -25 0z" fill="rgba(38, 38, 38, 1)"></path><path d="M875 225L975 125L975 25" stroke-width="8.33" stroke="rgba(38, 38, 38, 1)"></path><path d="M862.5 225 a12.5 12.5 0 1 0 25 0 a12.5 12.5 0 1 0 -25 0zM962.5 25 a12.5 12.5 0 1 0 25 0 a12.5 12.5 0 1 0 -25 0z" fill="rgba(38, 38, 38, 1)"></path><path d="M1025 975L975 1025L825 1025" stroke-width="8.33" stroke="rgba(38, 38, 38, 1)"></path><path d="M1012.5 975 a12.5 12.5 0 1 0 25 0 a12.5 12.5 0 1 0 -25 0zM812.5 1025 a12.5 12.5 0 1 0 25 0 a12.5 12.5 0 1 0 -25 0z" fill="rgba(38, 38, 38, 1)"></path><path d="M125 925L125 1025" stroke-width="8.33" stroke="rgba(38, 38, 38, 1)"></path><path d="M112.5 925 a12.5 12.5 0 1 0 25 0 a12.5 12.5 0 1 0 -25 0zM112.5 1025 a12.5 12.5 0 1 0 25 0 a12.5 12.5 0 1 0 -25 0z" fill="rgba(38, 38, 38, 1)"></path><path d="M525 375L525 425L625 525" stroke-width="8.33" stroke="rgba(38, 38, 38, 1)"></path><path d="M512.5 375 a12.5 12.5 0 1 0 25 0 a12.5 12.5 0 1 0 -25 0zM612.5 525 a12.5 12.5 0 1 0 25 0 a12.5 12.5 0 1 0 -25 0z" fill="rgba(38, 38, 38, 1)"></path><path d="M375 575L375 625L425 675" stroke-width="8.33" stroke="rgba(38, 38, 38, 1)"></path><path d="M362.5 575 a12.5 12.5 0 1 0 25 0 a12.5 12.5 0 1 0 -25 0zM412.5 675 a12.5 12.5 0 1 0 25 0 a12.5 12.5 0 1 0 -25 0z" fill="rgba(38, 38, 38, 1)"></path><path d="M1725 425L1725 325L1675 275" stroke-width="8.33" stroke="rgba(38, 38, 38, 1)"></path><path d="M1712.5 425 a12.5 12.5 0 1 0 25 0 a12.5 12.5 0 1 0 -25 0zM1662.5 275 a12.5 12.5 0 1 0 25 0 a12.5 12.5 0 1 0 -25 0z" fill="rgba(38, 38, 38, 1)"></path><path d="M1775 825L1725 825L1675 875" stroke-width="8.33" stroke="rgba(38, 38, 38, 1)"></path><path d="M1762.5 825 a12.5 12.5 0 1 0 25 0 a12.5 12.5 0 1 0 -25 0zM1662.5 875 a12.5 12.5 0 1 0 25 0 a12.5 12.5 0 1 0 -25 0z" fill="rgba(38, 38, 38, 1)"></path><path d="M25 975L25 875" stroke-width="8.33" stroke="rgba(38, 38, 38, 1)"></path><path d="M12.5 975 a12.5 12.5 0 1 0 25 0 a12.5 12.5 0 1 0 -25 0zM12.5 875 a12.5 12.5 0 1 0 25 0 a12.5 12.5 0 1 0 -25 0z" fill="rgba(38, 38, 38, 1)"></path><path d="M925 275L1075 275" stroke-width="8.33" stroke="rgba(38, 38, 38, 1)"></path><path d="M912.5 275 a12.5 12.5 0 1 0 25 0 a12.5 12.5 0 1 0 -25 0zM1062.5 275 a12.5 12.5 0 1 0 25 0 a12.5 12.5 0 1 0 -25 0z" fill="rgba(38, 38, 38, 1)"></path><path d="M775 25L625 25" stroke-width="8.33" stroke="rgba(38, 38, 38, 1)"></path><path d="M762.5 25 a12.5 12.5 0 1 0 25 0 a12.5 12.5 0 1 0 -25 0zM612.5 25 a12.5 12.5 0 1 0 25 0 a12.5 12.5 0 1 0 -25 0z" fill="rgba(38, 38, 38, 1)"></path><path d="M925 675L1025 575L1075 575L1125 625" stroke-width="8.33" stroke="rgba(38, 38, 38, 1)"></path><path d="M912.5 675 a12.5 12.5 0 1 0 25 0 a12.5 12.5 0 1 0 -25 0zM1112.5 625 a12.5 12.5 0 1 0 25 0 a12.5 12.5 0 1 0 -25 0z" fill="rgba(38, 38, 38, 1)"></path><path d="M1675 425L1675 325" stroke-width="8.33" stroke="rgba(38, 38, 38, 1)"></path><path d="M1662.5 425 a12.5 12.5 0 1 0 25 0 a12.5 12.5 0 1 0 -25 0zM1662.5 325 a12.5 12.5 0 1 0 25 0 a12.5 12.5 0 1 0 -25 0z" fill="rgba(38, 38, 38, 1)"></path><path d="M625 625L575 625L475 725" stroke-width="8.33" stroke="rgba(38, 38, 38, 1)"></path><path d="M612.5 625 a12.5 12.5 0 1 0 25 0 a12.5 12.5 0 1 0 -25 0zM462.5 725 a12.5 12.5 0 1 0 25 0 a12.5 12.5 0 1 0 -25 0z" fill="rgba(38, 38, 38, 1)"></path><path d="M225 475L325 475" stroke-width="8.33" stroke="rgba(38, 38, 38, 1)"></path><path d="M212.5 475 a12.5 12.5 0 1 0 25 0 a12.5 12.5 0 1 0 -25 0zM312.5 475 a12.5 12.5 0 1 0 25 0 a12.5 12.5 0 1 0 -25 0z" fill="rgba(38, 38, 38, 1)"></path><path d="M1525 925L1475 975L1475 1025" stroke-width="8.33" stroke="rgba(38, 38, 38, 1)"></path><path d="M1512.5 925 a12.5 12.5 0 1 0 25 0 a12.5 12.5 0 1 0 -25 0zM1462.5 1025 a12.5 12.5 0 1 0 25 0 a12.5 12.5 0 1 0 -25 0z" fill="rgba(38, 38, 38, 1)"></path></g></g><defs><mask id="SvgjsMask1053"><rect width="1920" height="1080" fill="#ffffff"></rect></mask><mask id="SvgjsMask1054"><rect width="1920" height="1080" fill="white"></rect><path d="M918.75 225 a6.25 6.25 0 1 0 12.5 0 a6.25 6.25 0 1 0 -12.5 0zM1868.75 375 a6.25 6.25 0 1 0 12.5 0 a6.25 6.25 0 1 0 -12.5 0z" fill="black"></path><path d="M968.75 425 a6.25 6.25 0 1 0 12.5 0 a6.25 6.25 0 1 0 -12.5 0zM1768.75 1075 a6.25 6.25 0 1 0 12.5 0 a6.25 6.25 0 1 0 -12.5 0z" fill="black"></path><path d="M1368.75 525 a6.25 6.25 0 1 0 12.5 0 a6.25 6.25 0 1 0 -12.5 0zM1918.75 525 a6.25 6.25 0 1 0 12.5 0 a6.25 6.25 0 1 0 -12.5 0z" fill="black"></path><path d="M68.75 1025 a6.25 6.25 0 1 0 12.5 0 a6.25 6.25 0 1 0 -12.5 0zM68.75 75 a6.25 6.25 0 1 0 12.5 0 a6.25 6.25 0 1 0 -12.5 0z" fill="black"></path><path d="M1618.75 425 a6.25 6.25 0 1 0 12.5 0 a6.25 6.25 0 1 0 -12.5 0zM1318.75 725 a6.25 6.25 0 1 0 12.5 0 a6.25 6.25 0 1 0 -12.5 0z" fill="black"></path><path d="M1168.75 725 a6.25 6.25 0 1 0 12.5 0 a6.25 6.25 0 1 0 -12.5 0zM1368.75 1075 a6.25 6.25 0 1 0 12.5 0 a6.25 6.25 0 1 0 -12.5 0z" fill="black"></path><path d="M618.75 925 a6.25 6.25 0 1 0 12.5 0 a6.25 6.25 0 1 0 -12.5 0zM518.75 25 a6.25 6.25 0 1 0 12.5 0 a6.25 6.25 0 1 0 -12.5 0z" fill="black"></path><path d="M1818.75 725 a6.25 6.25 0 1 0 12.5 0 a6.25 6.25 0 1 0 -12.5 0zM1368.75 725 a6.25 6.25 0 1 0 12.5 0 a6.25 6.25 0 1 0 -12.5 0z" fill="black"></path><path d="M1468.75 175 a6.25 6.25 0 1 0 12.5 0 a6.25 6.25 0 1 0 -12.5 0zM1918.75 675 a6.25 6.25 0 1 0 12.5 0 a6.25 6.25 0 1 0 -12.5 0z" fill="black"></path><path d="M518.75 1075 a6.25 6.25 0 1 0 12.5 0 a6.25 6.25 0 1 0 -12.5 0zM118.75 225 a6.25 6.25 0 1 0 12.5 0 a6.25 6.25 0 1 0 -12.5 0z" fill="black"></path><path d="M168.75 1025 a6.25 6.25 0 1 0 12.5 0 a6.25 6.25 0 1 0 -12.5 0zM118.75 825 a6.25 6.25 0 1 0 12.5 0 a6.25 6.25 0 1 0 -12.5 0z" fill="black"></path><path d="M18.75 175 a6.25 6.25 0 1 0 12.5 0 a6.25 6.25 0 1 0 -12.5 0zM18.75 25 a6.25 6.25 0 1 0 12.5 0 a6.25 6.25 0 1 0 -12.5 0z" fill="black"></path><path d="M18.75 575 a6.25 6.25 0 1 0 12.5 0 a6.25 6.25 0 1 0 -12.5 0zM18.75 225 a6.25 6.25 0 1 0 12.5 0 a6.25 6.25 0 1 0 -12.5 0z" fill="black"></path><path d="M1168.75 25 a6.25 6.25 0 1 0 12.5 0 a6.25 6.25 0 1 0 -12.5 0zM1368.75 25 a6.25 6.25 0 1 0 12.5 0 a6.25 6.25 0 1 0 -12.5 0z" fill="black"></path><path d="M818.75 25 a6.25 6.25 0 1 0 12.5 0 a6.25 6.25 0 1 0 -12.5 0zM1218.75 525 a6.25 6.25 0 1 0 12.5 0 a6.25 6.25 0 1 0 -12.5 0z" fill="black"></path><path d="M1468.75 675 a6.25 6.25 0 1 0 12.5 0 a6.25 6.25 0 1 0 -12.5 0zM1668.75 675 a6.25 6.25 0 1 0 12.5 0 a6.25 6.25 0 1 0 -12.5 0z" fill="black"></path><path d="M718.75 425 a6.25 6.25 0 1 0 12.5 0 a6.25 6.25 0 1 0 -12.5 0zM418.75 475 a6.25 6.25 0 1 0 12.5 0 a6.25 6.25 0 1 0 -12.5 0z" fill="black"></path><path d="M618.75 1075 a6.25 6.25 0 1 0 12.5 0 a6.25 6.25 0 1 0 -12.5 0zM1318.75 1075 a6.25 6.25 0 1 0 12.5 0 a6.25 6.25 0 1 0 -12.5 0z" fill="black"></path><path d="M818.75 475 a6.25 6.25 0 1 0 12.5 0 a6.25 6.25 0 1 0 -12.5 0zM568.75 1075 a6.25 6.25 0 1 0 12.5 0 a6.25 6.25 0 1 0 -12.5 0z" fill="black"></path><path d="M418.75 275 a6.25 6.25 0 1 0 12.5 0 a6.25 6.25 0 1 0 -12.5 0zM218.75 75 a6.25 6.25 0 1 0 12.5 0 a6.25 6.25 0 1 0 -12.5 0z" fill="black"></path><path d="M1118.75 1025 a6.25 6.25 0 1 0 12.5 0 a6.25 6.25 0 1 0 -12.5 0zM1318.75 1025 a6.25 6.25 0 1 0 12.5 0 a6.25 6.25 0 1 0 -12.5 0z" fill="black"></path><path d="M268.75 625 a6.25 6.25 0 1 0 12.5 0 a6.25 6.25 0 1 0 -12.5 0zM468.75 925 a6.25 6.25 0 1 0 12.5 0 a6.25 6.25 0 1 0 -12.5 0z" fill="black"></path><path d="M1468.75 525 a6.25 6.25 0 1 0 12.5 0 a6.25 6.25 0 1 0 -12.5 0zM1618.75 625 a6.25 6.25 0 1 0 12.5 0 a6.25 6.25 0 1 0 -12.5 0z" fill="black"></path><path d="M1568.75 875 a6.25 6.25 0 1 0 12.5 0 a6.25 6.25 0 1 0 -12.5 0zM1918.75 1025 a6.25 6.25 0 1 0 12.5 0 a6.25 6.25 0 1 0 -12.5 0z" fill="black"></path><path d="M1318.75 325 a6.25 6.25 0 1 0 12.5 0 a6.25 6.25 0 1 0 -12.5 0zM1318.75 225 a6.25 6.25 0 1 0 12.5 0 a6.25 6.25 0 1 0 -12.5 0z" fill="black"></path><path d="M18.75 825 a6.25 6.25 0 1 0 12.5 0 a6.25 6.25 0 1 0 -12.5 0zM18.75 625 a6.25 6.25 0 1 0 12.5 0 a6.25 6.25 0 1 0 -12.5 0z" fill="black"></path><path d="M1218.75 925 a6.25 6.25 0 1 0 12.5 0 a6.25 6.25 0 1 0 -12.5 0zM968.75 475 a6.25 6.25 0 1 0 12.5 0 a6.25 6.25 0 1 0 -12.5 0z" fill="black"></path><path d="M18.75 1075 a6.25 6.25 0 1 0 12.5 0 a6.25 6.25 0 1 0 -12.5 0zM368.75 1075 a6.25 6.25 0 1 0 12.5 0 a6.25 6.25 0 1 0 -12.5 0z" fill="black"></path><path d="M1568.75 825 a6.25 6.25 0 1 0 12.5 0 a6.25 6.25 0 1 0 -12.5 0zM1918.75 975 a6.25 6.25 0 1 0 12.5 0 a6.25 6.25 0 1 0 -12.5 0z" fill="black"></path><path d="M568.75 225 a6.25 6.25 0 1 0 12.5 0 a6.25 6.25 0 1 0 -12.5 0zM368.75 25 a6.25 6.25 0 1 0 12.5 0 a6.25 6.25 0 1 0 -12.5 0z" fill="black"></path><path d="M1718.75 525 a6.25 6.25 0 1 0 12.5 0 a6.25 6.25 0 1 0 -12.5 0zM1918.75 625 a6.25 6.25 0 1 0 12.5 0 a6.25 6.25 0 1 0 -12.5 0z" fill="black"></path><path d="M268.75 275 a6.25 6.25 0 1 0 12.5 0 a6.25 6.25 0 1 0 -12.5 0zM218.75 125 a6.25 6.25 0 1 0 12.5 0 a6.25 6.25 0 1 0 -12.5 0z" fill="black"></path><path d="M1818.75 75 a6.25 6.25 0 1 0 12.5 0 a6.25 6.25 0 1 0 -12.5 0zM1618.75 75 a6.25 6.25 0 1 0 12.5 0 a6.25 6.25 0 1 0 -12.5 0z" fill="black"></path><path d="M218.75 575 a6.25 6.25 0 1 0 12.5 0 a6.25 6.25 0 1 0 -12.5 0zM218.75 825 a6.25 6.25 0 1 0 12.5 0 a6.25 6.25 0 1 0 -12.5 0z" fill="black"></path><path d="M768.75 475 a6.25 6.25 0 1 0 12.5 0 a6.25 6.25 0 1 0 -12.5 0zM318.75 125 a6.25 6.25 0 1 0 12.5 0 a6.25 6.25 0 1 0 -12.5 0z" fill="black"></path><path d="M1418.75 825 a6.25 6.25 0 1 0 12.5 0 a6.25 6.25 0 1 0 -12.5 0zM1918.75 775 a6.25 6.25 0 1 0 12.5 0 a6.25 6.25 0 1 0 -12.5 0z" fill="black"></path><path d="M318.75 625 a6.25 6.25 0 1 0 12.5 0 a6.25 6.25 0 1 0 -12.5 0zM768.75 525 a6.25 6.25 0 1 0 12.5 0 a6.25 6.25 0 1 0 -12.5 0z" fill="black"></path><path d="M1218.75 825 a6.25 6.25 0 1 0 12.5 0 a6.25 6.25 0 1 0 -12.5 0zM1268.75 975 a6.25 6.25 0 1 0 12.5 0 a6.25 6.25 0 1 0 -12.5 0z" fill="black"></path><path d="M1568.75 425 a6.25 6.25 0 1 0 12.5 0 a6.25 6.25 0 1 0 -12.5 0zM1518.75 175 a6.25 6.25 0 1 0 12.5 0 a6.25 6.25 0 1 0 -12.5 0z" fill="black"></path><path d="M1868.75 25 a6.25 6.25 0 1 0 12.5 0 a6.25 6.25 0 1 0 -12.5 0zM1618.75 25 a6.25 6.25 0 1 0 12.5 0 a6.25 6.25 0 1 0 -12.5 0z" fill="black"></path><path d="M568.75 525 a6.25 6.25 0 1 0 12.5 0 a6.25 6.25 0 1 0 -12.5 0zM168.75 525 a6.25 6.25 0 1 0 12.5 0 a6.25 6.25 0 1 0 -12.5 0z" fill="black"></path><path d="M1068.75 725 a6.25 6.25 0 1 0 12.5 0 a6.25 6.25 0 1 0 -12.5 0zM1218.75 875 a6.25 6.25 0 1 0 12.5 0 a6.25 6.25 0 1 0 -12.5 0z" fill="black"></path><path d="M368.75 775 a6.25 6.25 0 1 0 12.5 0 a6.25 6.25 0 1 0 -12.5 0zM368.75 875 a6.25 6.25 0 1 0 12.5 0 a6.25 6.25 0 1 0 -12.5 0z" fill="black"></path><path d="M1818.75 875 a6.25 6.25 0 1 0 12.5 0 a6.25 6.25 0 1 0 -12.5 0zM1918.75 875 a6.25 6.25 0 1 0 12.5 0 a6.25 6.25 0 1 0 -12.5 0z" fill="black"></path><path d="M918.75 975 a6.25 6.25 0 1 0 12.5 0 a6.25 6.25 0 1 0 -12.5 0zM768.75 725 a6.25 6.25 0 1 0 12.5 0 a6.25 6.25 0 1 0 -12.5 0z" fill="black"></path><path d="M1518.75 1025 a6.25 6.25 0 1 0 12.5 0 a6.25 6.25 0 1 0 -12.5 0zM1668.75 1025 a6.25 6.25 0 1 0 12.5 0 a6.25 6.25 0 1 0 -12.5 0z" fill="black"></path><path d="M1918.75 25 a6.25 6.25 0 1 0 12.5 0 a6.25 6.25 0 1 0 -12.5 0zM1718.75 175 a6.25 6.25 0 1 0 12.5 0 a6.25 6.25 0 1 0 -12.5 0z" fill="black"></path><path d="M518.75 475 a6.25 6.25 0 1 0 12.5 0 a6.25 6.25 0 1 0 -12.5 0zM268.75 175 a6.25 6.25 0 1 0 12.5 0 a6.25 6.25 0 1 0 -12.5 0z" fill="black"></path><path d="M468.75 675 a6.25 6.25 0 1 0 12.5 0 a6.25 6.25 0 1 0 -12.5 0zM468.75 575 a6.25 6.25 0 1 0 12.5 0 a6.25 6.25 0 1 0 -12.5 0z" fill="black"></path><path d="M1018.75 675 a6.25 6.25 0 1 0 12.5 0 a6.25 6.25 0 1 0 -12.5 0zM1168.75 675 a6.25 6.25 0 1 0 12.5 0 a6.25 6.25 0 1 0 -12.5 0z" fill="black"></path><path d="M1168.75 275 a6.25 6.25 0 1 0 12.5 0 a6.25 6.25 0 1 0 -12.5 0zM1018.75 375 a6.25 6.25 0 1 0 12.5 0 a6.25 6.25 0 1 0 -12.5 0z" fill="black"></path><path d="M818.75 375 a6.25 6.25 0 1 0 12.5 0 a6.25 6.25 0 1 0 -12.5 0zM668.75 175 a6.25 6.25 0 1 0 12.5 0 a6.25 6.25 0 1 0 -12.5 0z" fill="black"></path><path d="M768.75 875 a6.25 6.25 0 1 0 12.5 0 a6.25 6.25 0 1 0 -12.5 0zM868.75 875 a6.25 6.25 0 1 0 12.5 0 a6.25 6.25 0 1 0 -12.5 0z" fill="black"></path><path d="M1918.75 75 a6.25 6.25 0 1 0 12.5 0 a6.25 6.25 0 1 0 -12.5 0zM1918.75 425 a6.25 6.25 0 1 0 12.5 0 a6.25 6.25 0 1 0 -12.5 0z" fill="black"></path><path d="M568.75 925 a6.25 6.25 0 1 0 12.5 0 a6.25 6.25 0 1 0 -12.5 0zM868.75 925 a6.25 6.25 0 1 0 12.5 0 a6.25 6.25 0 1 0 -12.5 0z" fill="black"></path><path d="M668.75 325 a6.25 6.25 0 1 0 12.5 0 a6.25 6.25 0 1 0 -12.5 0zM818.75 425 a6.25 6.25 0 1 0 12.5 0 a6.25 6.25 0 1 0 -12.5 0z" fill="black"></path><path d="M1718.75 925 a6.25 6.25 0 1 0 12.5 0 a6.25 6.25 0 1 0 -12.5 0zM1918.75 825 a6.25 6.25 0 1 0 12.5 0 a6.25 6.25 0 1 0 -12.5 0z" fill="black"></path><path d="M468.75 875 a6.25 6.25 0 1 0 12.5 0 a6.25 6.25 0 1 0 -12.5 0zM418.75 775 a6.25 6.25 0 1 0 12.5 0 a6.25 6.25 0 1 0 -12.5 0z" fill="black"></path><path d="M718.75 825 a6.25 6.25 0 1 0 12.5 0 a6.25 6.25 0 1 0 -12.5 0zM868.75 825 a6.25 6.25 0 1 0 12.5 0 a6.25 6.25 0 1 0 -12.5 0z" fill="black"></path><path d="M218.75 325 a6.25 6.25 0 1 0 12.5 0 a6.25 6.25 0 1 0 -12.5 0zM368.75 475 a6.25 6.25 0 1 0 12.5 0 a6.25 6.25 0 1 0 -12.5 0z" fill="black"></path><path d="M1568.75 925 a6.25 6.25 0 1 0 12.5 0 a6.25 6.25 0 1 0 -12.5 0zM1468.75 825 a6.25 6.25 0 1 0 12.5 0 a6.25 6.25 0 1 0 -12.5 0z" fill="black"></path><path d="M1018.75 75 a6.25 6.25 0 1 0 12.5 0 a6.25 6.25 0 1 0 -12.5 0zM1168.75 75 a6.25 6.25 0 1 0 12.5 0 a6.25 6.25 0 1 0 -12.5 0z" fill="black"></path><path d="M1918.75 275 a6.25 6.25 0 1 0 12.5 0 a6.25 6.25 0 1 0 -12.5 0zM1918.75 125 a6.25 6.25 0 1 0 12.5 0 a6.25 6.25 0 1 0 -12.5 0z" fill="black"></path><path d="M1218.75 425 a6.25 6.25 0 1 0 12.5 0 a6.25 6.25 0 1 0 -12.5 0zM1318.75 375 a6.25 6.25 0 1 0 12.5 0 a6.25 6.25 0 1 0 -12.5 0z" fill="black"></path><path d="M1268.75 325 a6.25 6.25 0 1 0 12.5 0 a6.25 6.25 0 1 0 -12.5 0zM1118.75 475 a6.25 6.25 0 1 0 12.5 0 a6.25 6.25 0 1 0 -12.5 0z" fill="black"></path><path d="M868.75 225 a6.25 6.25 0 1 0 12.5 0 a6.25 6.25 0 1 0 -12.5 0zM968.75 25 a6.25 6.25 0 1 0 12.5 0 a6.25 6.25 0 1 0 -12.5 0z" fill="black"></path><path d="M1018.75 975 a6.25 6.25 0 1 0 12.5 0 a6.25 6.25 0 1 0 -12.5 0zM818.75 1025 a6.25 6.25 0 1 0 12.5 0 a6.25 6.25 0 1 0 -12.5 0z" fill="black"></path><path d="M118.75 925 a6.25 6.25 0 1 0 12.5 0 a6.25 6.25 0 1 0 -12.5 0zM118.75 1025 a6.25 6.25 0 1 0 12.5 0 a6.25 6.25 0 1 0 -12.5 0z" fill="black"></path><path d="M518.75 375 a6.25 6.25 0 1 0 12.5 0 a6.25 6.25 0 1 0 -12.5 0zM618.75 525 a6.25 6.25 0 1 0 12.5 0 a6.25 6.25 0 1 0 -12.5 0z" fill="black"></path><path d="M368.75 575 a6.25 6.25 0 1 0 12.5 0 a6.25 6.25 0 1 0 -12.5 0zM418.75 675 a6.25 6.25 0 1 0 12.5 0 a6.25 6.25 0 1 0 -12.5 0z" fill="black"></path><path d="M1718.75 425 a6.25 6.25 0 1 0 12.5 0 a6.25 6.25 0 1 0 -12.5 0zM1668.75 275 a6.25 6.25 0 1 0 12.5 0 a6.25 6.25 0 1 0 -12.5 0z" fill="black"></path><path d="M1768.75 825 a6.25 6.25 0 1 0 12.5 0 a6.25 6.25 0 1 0 -12.5 0zM1668.75 875 a6.25 6.25 0 1 0 12.5 0 a6.25 6.25 0 1 0 -12.5 0z" fill="black"></path><path d="M18.75 975 a6.25 6.25 0 1 0 12.5 0 a6.25 6.25 0 1 0 -12.5 0zM18.75 875 a6.25 6.25 0 1 0 12.5 0 a6.25 6.25 0 1 0 -12.5 0z" fill="black"></path><path d="M918.75 275 a6.25 6.25 0 1 0 12.5 0 a6.25 6.25 0 1 0 -12.5 0zM1068.75 275 a6.25 6.25 0 1 0 12.5 0 a6.25 6.25 0 1 0 -12.5 0z" fill="black"></path><path d="M768.75 25 a6.25 6.25 0 1 0 12.5 0 a6.25 6.25 0 1 0 -12.5 0zM618.75 25 a6.25 6.25 0 1 0 12.5 0 a6.25 6.25 0 1 0 -12.5 0z" fill="black"></path><path d="M918.75 675 a6.25 6.25 0 1 0 12.5 0 a6.25 6.25 0 1 0 -12.5 0zM1118.75 625 a6.25 6.25 0 1 0 12.5 0 a6.25 6.25 0 1 0 -12.5 0z" fill="black"></path><path d="M1668.75 425 a6.25 6.25 0 1 0 12.5 0 a6.25 6.25 0 1 0 -12.5 0zM1668.75 325 a6.25 6.25 0 1 0 12.5 0 a6.25 6.25 0 1 0 -12.5 0z" fill="black"></path><path d="M618.75 625 a6.25 6.25 0 1 0 12.5 0 a6.25 6.25 0 1 0 -12.5 0zM468.75 725 a6.25 6.25 0 1 0 12.5 0 a6.25 6.25 0 1 0 -12.5 0z" fill="black"></path><path d="M218.75 475 a6.25 6.25 0 1 0 12.5 0 a6.25 6.25 0 1 0 -12.5 0zM318.75 475 a6.25 6.25 0 1 0 12.5 0 a6.25 6.25 0 1 0 -12.5 0z" fill="black"></path><path d="M1518.75 925 a6.25 6.25 0 1 0 12.5 0 a6.25 6.25 0 1 0 -12.5 0zM1468.75 1025 a6.25 6.25 0 1 0 12.5 0 a6.25 6.25 0 1 0 -12.5 0z" fill="black"></path></mask></defs></svg>